<?xml version="1.0" standalone="no"?>
<!DOCTYPE svg PUBLIC "-//W3C//DTD SVG 20010904//EN"
 "http://www.w3.org/TR/2001/REC-SVG-20010904/DTD/svg10.dtd">
<svg version="1.0" xmlns="http://www.w3.org/2000/svg"
 width="658.000000pt" height="658.000000pt" viewBox="0 0 658.000000 658.000000"
 preserveAspectRatio="xMidYMid meet">
<metadata>
Created by potrace 1.11, written by Peter Selinger 2001-2013
</metadata>
<g transform="translate(0.000000,658.000000) scale(0.100000,-0.100000)"
fill="#000000" stroke="none">
<path d="M2 5978 c1 -332 3 -583 5 -558 4 54 23 120 35 120 4 0 8 11 8 24 0
14 4 28 10 31 5 3 10 15 10 26 0 10 5 19 10 19 6 0 10 7 10 16 0 27 53 13 61
-16 11 -39 10 -118 -1 -125 -5 -3 -10 -19 -10 -35 0 -15 -5 -30 -12 -32 -7 -3
-12 -33 -12 -89 -1 -123 10 -170 49 -223 47 -61 45 -97 -5 -81 -28 9 -105 121
-121 178 -7 26 -16 47 -20 47 -3 0 -6 19 -7 42 -1 23 -4 44 -7 46 -3 3 -5 -53
-5 -124 0 -107 3 -134 18 -156 35 -53 109 -116 172 -147 72 -36 118 -73 139
-114 13 -25 12 -28 -8 -46 -24 -21 -44 -19 -76 10 -11 10 -35 32 -52 48 -18
17 -33 27 -33 23 -1 -4 -7 7 -14 23 -8 19 -29 38 -52 49 -22 11 -52 35 -67 54
l-27 35 0 -2511 0 -2512 3290 0 3290 0 0 638 0 637 -53 36 c-63 44 -187 86
-281 94 -83 8 -109 23 -138 82 -40 79 -126 133 -129 81 -1 -18 -3 -16 -8 7 -5
24 -12 31 -41 35 -19 4 -53 18 -75 31 -77 48 -151 72 -200 65 -38 -6 -46 -4
-52 11 -19 54 -58 66 -100 33 -36 -28 -60 -25 -110 16 -45 37 -55 39 -135 19
-21 -6 -27 -3 -32 13 -4 11 -18 32 -31 46 -27 29 -45 28 -119 -5 -36 -16 -43
-16 -78 -2 -32 13 -44 13 -65 4 -23 -11 -32 -8 -84 29 -87 61 -122 73 -244 80
-60 4 -135 14 -165 23 -88 27 -308 42 -424 30 l-99 -11 -114 55 -113 54 -1
162 c-1 362 -24 467 -112 529 -18 12 -34 25 -37 28 -11 12 -60 29 -106 35 -65
10 -87 26 -48 37 21 6 32 4 40 -7 6 -8 19 -15 29 -15 14 0 15 3 6 14 -12 14 4
26 35 26 21 0 92 59 99 82 4 10 15 18 25 18 23 0 68 53 76 88 3 15 13 43 22
61 9 19 15 40 13 45 -11 27 -17 201 -7 208 8 5 5 18 -6 39 -19 33 -26 78 -8
49 15 -24 28 0 30 55 2 28 2 55 1 62 -2 18 -29 4 -36 -18 -8 -24 -26 -24 -58
1 -17 14 -23 26 -20 40 3 11 0 20 -6 20 -6 0 -11 8 -11 17 0 9 -8 25 -17 36
-11 12 -12 17 -4 12 11 -6 13 -3 9 13 -4 12 -3 22 1 22 4 0 8 12 9 28 1 15 10
38 21 52 14 19 16 30 8 47 -12 27 -64 53 -106 53 -28 0 -31 -3 -25 -24 3 -13
1 -27 -5 -31 -6 -3 -8 -17 -5 -31 7 -28 -2 -31 -28 -7 -16 14 -23 15 -38 5
-26 -16 -45 -16 -33 1 8 11 9 18 5 55 -3 20 -22 14 -22 -8 0 -11 -9 -29 -21
-41 -19 -19 -20 -57 -1 -45 5 3 7 -6 4 -19 -2 -14 0 -25 6 -25 5 0 13 -15 16
-34 6 -34 39 -55 52 -34 3 5 12 1 19 -9 12 -15 11 -19 -5 -25 -10 -4 -17 -17
-17 -32 -1 -22 2 -24 20 -15 16 9 22 8 29 -5 5 -10 21 -21 35 -27 28 -10 25
-21 -7 -26 -11 -2 -20 2 -20 8 0 13 -48 3 -68 -14 -11 -9 -10 -12 2 -19 9 -5
16 -16 16 -25 0 -14 -2 -14 -19 1 -22 20 -41 14 -41 -14 0 -31 -28 -31 -62 0
-18 17 -41 33 -50 36 -10 3 -18 10 -18 15 0 10 -68 79 -77 79 -3 0 -2 -13 2
-29 3 -16 2 -32 -3 -35 -6 -3 -13 10 -16 29 -8 39 -21 44 -43 18 -10 -13 -16
-15 -19 -5 -3 6 -19 12 -35 12 -22 0 -29 5 -29 20 0 24 -8 25 -34 5 -23 -17
-46 -20 -46 -5 0 6 7 10 15 10 8 0 15 5 15 10 0 6 7 10 16 10 8 0 12 5 9 10
-5 8 -11 7 -20 0 -10 -8 -19 -8 -34 -1 -11 6 -29 11 -40 11 -27 0 -34 15 -32
72 1 48 1 49 -20 36 -53 -32 -62 -35 -82 -30 -22 7 -22 7 2 10 18 3 22 9 19
27 -4 16 -1 22 9 18 7 -3 13 0 13 7 0 7 8 19 18 26 16 13 16 14 -5 20 -23 6
-39 37 -28 54 3 5 1 10 -4 10 -6 0 -11 -4 -11 -10 0 -5 -7 -10 -15 -10 -26 0
-16 21 15 31 16 6 28 15 25 19 -3 5 3 11 12 13 17 4 17 5 0 6 -14 1 -17 9 -15
42 2 34 9 47 36 67 20 15 32 33 32 47 0 28 20 37 39 18 7 -8 16 -11 19 -8 4 3
1 10 -7 14 -7 5 -11 12 -9 17 1 5 -7 10 -19 12 -13 2 -23 -1 -23 -7 0 -6 -5
-11 -10 -11 -7 0 -7 6 -1 18 7 12 21 17 53 16 25 0 55 7 73 18 39 23 48 23 33
-2 -10 -15 -10 -22 0 -32 9 -9 12 -8 12 5 0 16 3 15 28 -3 34 -25 165 -36 194
-16 30 21 155 3 228 -33 86 -42 148 -79 197 -118 l40 -33 7 38 c8 53 7 72 -4
72 -6 0 -8 -11 -4 -26 5 -20 3 -25 -7 -22 -8 3 -13 13 -12 23 1 11 -10 22 -28
28 -16 6 -32 21 -35 32 -12 36 -92 95 -131 95 -7 0 -13 9 -13 19 0 33 -52 40
-154 20 -44 -9 -69 -9 -110 1 -42 10 -58 10 -75 0 -17 -8 -26 -9 -34 -1 -6 6
-28 11 -49 11 -21 0 -38 2 -38 5 0 13 37 45 52 45 10 0 18 8 18 18 1 15 2 15
15 -2 13 -17 18 -18 40 -8 15 7 24 16 21 20 -8 14 54 54 74 49 10 -2 25 4 34
14 25 29 44 23 52 -16 4 -25 12 -35 24 -35 10 0 20 6 23 13 3 10 13 10 50 0
67 -18 84 -16 124 15 20 15 37 27 37 27 1 0 19 -17 41 -38 21 -20 45 -37 51
-37 7 0 24 -24 38 -52 23 -48 34 -88 51 -202 7 -43 22 -38 27 9 2 20 8 30 19
29 12 -1 16 9 16 45 0 46 -12 75 -27 66 -5 -3 -12 0 -16 6 -5 9 2 10 25 6 l31
-7 -16 25 c-9 14 -21 25 -26 25 -5 0 -6 5 -3 10 3 6 -2 10 -11 10 -10 0 -15 3
-11 6 3 3 -2 15 -13 26 -10 11 -20 32 -22 48 l-4 29 28 -20 c24 -17 28 -18 28
-5 0 9 -8 16 -19 16 -10 0 -21 6 -24 14 -4 10 0 12 15 8 15 -4 19 -1 14 9 -3
8 -9 22 -12 32 -4 9 -10 17 -15 17 -29 0 17 89 79 152 50 52 50 59 2 119 -13
16 -23 47 -27 82 -5 52 -8 57 -30 57 -13 0 -31 7 -39 15 -15 15 -102 11 -136
-7 -12 -6 -18 -5 -18 2 0 6 -5 8 -10 5 -6 -4 -8 -10 -5 -15 3 -5 -6 -23 -21
-40 -20 -22 -33 -29 -48 -24 -28 9 -71 46 -72 62 -1 6 -2 24 -3 40 0 15 -12
40 -26 56 -32 38 -32 50 3 41 25 -6 25 -5 8 8 -17 13 -17 15 -2 45 l16 31 33
-16 c17 -9 39 -20 47 -25 66 -36 142 -68 150 -63 6 4 10 1 10 -6 0 -7 2 -10 5
-7 9 9 -6 38 -19 38 -7 0 -22 10 -33 23 -38 41 -63 57 -93 57 -20 0 -30 5 -30
15 0 16 -46 65 -60 65 -4 0 -10 -8 -12 -18 -5 -20 -55 -38 -131 -47 -43 -6
-47 -8 -41 -29 4 -15 -2 -30 -21 -48 -24 -25 -49 -67 -109 -183 -36 -70 -35
-134 2 -175 25 -28 154 -90 188 -90 8 0 14 -4 14 -9 0 -5 3 -17 7 -27 4 -12 3
-15 -6 -10 -6 4 -29 5 -51 1 -28 -5 -37 -11 -33 -21 4 -11 -2 -13 -25 -8 -16
3 -38 2 -47 -3 -16 -9 -16 -11 0 -26 21 -22 1 -23 -39 -2 -32 17 -76 20 -76 5
0 -14 -44 -12 -58 2 -10 10 -21 4 -52 -27 -22 -22 -39 -46 -40 -52 0 -7 -4
-13 -10 -13 -5 0 -16 -15 -23 -33 -8 -18 -30 -46 -51 -62 -20 -16 -36 -32 -36
-37 0 -15 29 -8 39 10 7 12 13 14 21 6 8 -8 1 -21 -24 -48 -19 -21 -37 -37
-40 -37 -16 3 -17 0 -5 -15 10 -13 8 -19 -14 -40 -21 -19 -26 -31 -21 -49 4
-15 2 -25 -5 -25 -6 0 -11 7 -11 15 0 18 -26 20 -36 3 -4 -6 0 -16 9 -23 15
-11 16 -15 1 -43 -15 -32 -44 -35 -44 -5 0 11 -7 13 -30 8 -21 -5 -35 -2 -46
10 -15 15 -15 17 0 34 9 10 16 23 16 29 0 6 9 17 20 25 20 14 20 14 -5 31 -22
15 -28 15 -46 2 -19 -13 -19 -15 -4 -24 10 -5 16 -15 14 -21 -3 -8 -14 -4 -32
11 -25 22 -26 26 -12 43 8 11 15 28 15 38 0 19 -26 23 -33 5 -4 -10 -8 -10
-15 1 -6 8 -18 11 -31 6 -12 -4 -21 -2 -21 4 0 6 -13 11 -30 11 -23 0 -30 5
-30 19 0 14 -5 18 -19 14 -13 -3 -20 2 -25 21 -3 14 -13 26 -21 26 -9 0 -20
11 -25 25 -5 14 -14 25 -20 25 -6 0 -10 11 -8 24 1 13 -3 31 -11 40 -9 10 -10
16 -2 16 6 0 11 4 11 10 0 11 -32 1 -42 -14 -5 -7 -8 -3 -8 8 0 11 -3 16 -7
13 -3 -4 -12 5 -19 19 -16 29 -2 69 21 61 9 -4 11 1 8 15 -3 11 -16 24 -29 29
-25 9 -31 24 -15 34 6 3 15 -4 21 -15 6 -11 20 -20 31 -20 19 0 19 1 2 25 -10
13 -28 25 -40 25 -13 0 -23 5 -23 10 0 6 4 10 9 10 22 0 -5 43 -38 60 -45 23
-66 45 -51 55 5 3 10 1 10 -4 0 -6 7 -11 15 -11 8 0 12 6 9 14 -3 8 -1 17 5
21 16 9 13 25 -4 25 -8 0 -15 -7 -15 -15 0 -36 -54 9 -56 47 -2 24 1 27 25 24
14 -2 18 -1 8 1 -14 4 -17 12 -13 44 2 21 0 39 -5 39 -13 0 -11 37 2 45 6 4 8
13 5 20 -2 7 1 18 7 24 8 8 8 11 0 11 -7 0 -15 -9 -18 -20 -11 -35 -20 -22
-20 30 0 30 -4 49 -10 47 -5 -2 -10 -9 -10 -15 0 -19 -15 -26 -16 -6 0 10 -3
13 -6 7 -2 -7 -12 -13 -20 -13 -8 0 -13 6 -10 13 3 7 -1 21 -9 32 -29 39 -5
50 26 13 14 -18 21 -20 30 -11 9 8 7 16 -7 30 -11 11 -22 27 -26 36 -3 9 -13
17 -22 17 -8 0 -15 5 -15 10 0 13 6 13 31 -1 18 -9 19 -7 13 16 -4 15 -1 32 7
41 11 14 10 15 -7 12 -12 -2 -19 3 -19 12 0 8 6 15 14 15 21 0 31 38 15 60 -8
10 -14 13 -14 7 0 -10 -5 -10 -20 -2 -11 6 -19 19 -18 28 2 12 -3 16 -19 15
-13 -2 -23 2 -23 7 0 15 31 25 39 13 6 -10 45 -33 55 -33 3 0 6 9 6 21 0 16
-4 19 -16 15 -19 -7 -54 20 -54 41 0 7 -5 13 -11 13 -5 0 -7 5 -4 11 4 6 -2
17 -14 25 -24 17 -28 39 -6 30 20 -7 19 3 -2 26 -13 14 -14 21 -5 30 14 14 16
32 4 24 -10 -6 -93 21 -107 35 -6 7 -5 13 4 18 8 5 10 14 6 21 -6 9 0 10 24 5
20 -4 31 -3 31 4 0 6 -18 11 -40 11 -41 0 -52 12 -25 27 17 10 22 47 11 81 -5
15 -3 22 6 23 7 1 18 2 23 4 6 1 16 3 23 3 7 1 12 10 10 19 -4 26 29 28 42 3
20 -37 51 -64 60 -51 4 8 17 10 33 5 18 -4 27 -2 27 6 0 15 25 40 40 40 28 0
88 -44 101 -74 13 -28 18 -31 53 -29 24 2 46 -3 56 -12 20 -18 100 -34 135
-27 17 3 36 -4 60 -22 l35 -27 -28 -25 -27 -24 30 12 c17 6 36 16 43 21 15 12
23 6 25 -22 1 -11 4 -21 8 -21 16 0 68 32 73 45 7 19 27 19 71 -2 34 -16 36
-16 49 3 13 17 15 18 21 2 4 -9 4 -21 1 -26 -8 -13 28 -47 81 -78 57 -33 78
-53 88 -83 6 -19 40 -41 64 -41 5 0 3 17 -4 38 -12 34 -12 38 6 46 10 5 19 15
19 23 0 8 5 11 10 8 6 -4 8 -11 5 -16 -4 -5 -2 -9 3 -9 6 0 13 -15 16 -34 4
-18 15 -50 25 -71 19 -39 19 -39 107 -48 20 -1 45 -15 65 -35 24 -24 42 -32
68 -32 20 0 45 -3 56 -6 16 -4 21 0 22 15 1 12 -2 21 -8 21 -5 0 -9 13 -9 28
0 16 -9 47 -20 70 -11 22 -20 45 -20 50 0 4 -13 21 -29 36 -24 24 -28 35 -29
84 0 31 2 60 5 65 9 14 9 96 1 91 -4 -3 -8 6 -8 19 0 40 -75 146 -116 163 -20
8 -41 13 -47 11 -7 -2 -29 9 -50 25 -33 26 -44 29 -87 26 -49 -5 -49 -4 -43
20 5 22 3 24 -16 19 -15 -4 -29 1 -44 16 -13 13 -22 17 -25 9 -4 -14 -32 -16
-32 -3 0 5 9 13 20 16 32 10 23 24 -10 15 -18 -5 -30 -5 -30 1 0 11 -57 12
-64 0 -3 -5 -17 -8 -31 -8 -14 0 -28 3 -31 8 -3 5 0 9 5 9 6 0 11 7 11 15 0
18 -1 18 -37 4 -22 -8 -24 -12 -13 -19 12 -7 12 -12 3 -21 -9 -9 -16 -9 -26
-1 -13 12 -57 6 -57 -8 0 -4 -24 -7 -52 -7 -37 1 -52 -2 -50 -11 3 -16 -26
-28 -39 -15 -11 11 11 45 32 49 8 1 30 8 49 15 19 7 42 14 50 17 10 3 7 7 -10
12 -15 4 -36 1 -52 -7 -20 -9 -34 -10 -53 -3 -31 12 -49 4 -41 -16 8 -21 -11
-17 -35 7 -12 12 -18 27 -14 38 3 9 -2 26 -10 37 -19 25 -19 48 0 40 23 -9 19
31 -5 44 -11 6 -20 20 -20 31 0 14 -9 21 -29 25 -17 4 -31 14 -34 25 -3 12
-14 19 -31 19 -21 0 -30 9 -51 53 -14 30 -25 59 -25 65 0 9 -280 12 -1080 12
l-1080 0 2 -602z m2213 452 c3 -5 -1 -10 -9 -10 -9 0 -16 5 -16 10 0 6 4 10 9
10 6 0 13 -4 16 -10z m70 -50 c3 -5 -1 -10 -9 -10 -8 0 -18 5 -21 10 -3 6 1
10 9 10 8 0 18 -4 21 -10z m429 -295 c48 -8 93 -18 100 -23 6 -5 22 -12 36
-15 41 -10 146 -112 174 -169 28 -57 34 -116 12 -124 -8 -3 -33 13 -57 35 -42
41 -59 50 -59 31 0 -5 6 -10 13 -10 8 0 19 -11 25 -25 6 -14 10 -25 7 -25 -2
0 -39 11 -82 25 -43 14 -111 31 -150 37 -40 6 -73 14 -73 19 0 5 8 8 18 7 9
-1 38 1 63 6 41 7 92 0 145 -21 8 -3 14 -1 14 5 0 5 -12 12 -27 15 -104 22
-204 38 -235 38 -21 0 -38 4 -38 9 0 5 -10 10 -22 12 -14 2 -23 10 -22 20 1
10 -4 14 -12 11 -19 -7 -7 58 14 75 9 6 12 12 8 12 -5 0 -4 6 3 13 8 10 7 17
-1 25 -8 8 -8 12 3 16 8 2 21 7 29 9 22 8 17 8 114 -8z m-2479 -79 c28 -13 60
-34 72 -47 78 -83 84 -93 59 -102 -20 -8 -61 16 -97 58 -17 19 -52 45 -78 56
-25 11 -55 25 -67 30 -11 6 -29 9 -39 7 -10 -2 -20 3 -22 10 -9 23 115 15 172
-12z m1644 15 c9 -6 10 -11 2 -15 -13 -8 -31 1 -31 15 0 11 11 11 29 0z m651
-11 c0 -5 -4 -10 -10 -10 -5 0 -10 5 -10 10 0 6 5 10 10 10 6 0 10 -4 10 -10z
m-870 -86 c0 -8 -4 -12 -10 -9 -5 3 -10 10 -10 16 0 5 5 9 10 9 6 0 10 -7 10
-16z m121 -26 c-1 -5 -1 -17 -1 -28 0 -11 -3 -20 -8 -20 -12 0 -33 40 -26 51
7 11 35 8 35 -3z m-47 -30 c10 -38 7 -42 -14 -23 -23 21 -26 45 -6 45 7 0 16
-10 20 -22z m56 -60 c0 -13 -32 -6 -37 9 -3 7 3 9 16 6 12 -3 21 -10 21 -15z
m-10 -143 c0 -8 -4 -15 -10 -15 -5 0 -10 7 -10 15 0 8 5 15 10 15 6 0 10 -7
10 -15z m1275 -13 c-8 -8 -25 10 -19 20 4 6 9 5 15 -3 4 -7 6 -15 4 -17z
m-1152 -157 c9 -23 -11 -28 -23 -5 -8 16 -8 20 4 20 7 0 16 -7 19 -15z m62
-275 c-3 -5 -10 -10 -16 -10 -5 0 -9 5 -9 10 0 6 7 10 16 10 8 0 12 -4 9 -10z
m1495 -45 c0 -8 -4 -15 -10 -15 -5 0 -10 7 -10 15 0 8 5 15 10 15 6 0 10 -7
10 -15z m223 -632 c8 -44 -5 -62 -27 -40 -21 20 -20 31 0 23 12 -4 15 -2 10 9
-3 8 -9 22 -12 30 -4 9 -1 15 9 15 9 0 17 -14 20 -37z m-672 -74 c-13 -11 -26
-17 -29 -14 -8 8 20 35 37 35 12 -1 11 -5 -8 -21z m379 7 c0 -2 -7 -6 -15 -10
-8 -3 -15 -1 -15 4 0 6 7 10 15 10 8 0 15 -2 15 -4z m-220 -86 c0 -11 -4 -20
-10 -20 -5 0 -10 9 -10 20 0 11 5 20 10 20 6 0 10 -9 10 -20z m-730 -188 c0
-14 -11 -21 -26 -15 -8 3 -11 9 -8 14 7 11 34 12 34 1z m277 -188 c-3 -3 -12
-4 -19 -1 -8 3 -5 6 6 6 11 1 17 -2 13 -5z m873 -194 c0 -5 -4 -10 -10 -10 -5
0 -10 5 -10 10 0 6 5 10 10 10 6 0 10 -4 10 -10z m-779 -113 c-13 -13 -26 -3
-16 12 3 6 11 8 17 5 6 -4 6 -10 -1 -17z m759 -127 c20 -29 18 -38 -6 -22 -12
7 -29 52 -20 52 2 0 14 -13 26 -30z m20 -50 c0 -5 -5 -10 -11 -10 -5 0 -7 5
-4 10 3 6 8 10 11 10 2 0 4 -4 4 -10z m-77 -22 c11 -9 15 -21 11 -35 -8 -28
-24 -20 -24 12 0 13 -6 26 -12 28 -7 3 -8 6 -2 6 5 1 18 -5 27 -11z m72 -33
c9 -17 7 -22 -13 -32 -31 -17 -37 -16 -23 1 8 10 9 16 1 21 -5 3 -10 12 -10
19 0 21 34 14 45 -9z m-285 -34 c0 -12 -20 -25 -27 -18 -7 7 6 27 18 27 5 0 9
-4 9 -9z m196 -69 c-12 -11 -18 7 -10 30 l8 23 4 -23 c2 -13 1 -26 -2 -30z
m79 10 c-3 -3 -11 0 -18 7 -9 10 -8 11 6 5 10 -3 15 -9 12 -12z m85 -63 c0 -5
-4 -9 -10 -9 -5 0 -10 7 -10 16 0 8 5 12 10 9 6 -3 10 -10 10 -16z m-335 -439
c3 -5 -1 -10 -9 -10 -8 0 -18 5 -21 10 -3 6 1 10 9 10 8 0 18 -4 21 -10z
m-2581 -757 c20 -10 36 -21 36 -24 0 -13 -32 -19 -48 -9 -11 6 -13 9 -4 10 25
0 -13 28 -44 33 l-29 4 27 2 c15 0 43 -7 62 -16z m-4 -53 c0 -5 -7 -10 -16
-10 -8 0 -12 5 -9 10 3 6 10 10 16 10 5 0 9 -4 9 -10z m30 -44 c0 -11 -19 -15
-25 -6 -3 5 1 10 9 10 9 0 16 -2 16 -4z m4780 -406 c0 -5 -2 -10 -4 -10 -3 0
-8 5 -11 10 -3 6 -1 10 4 10 6 0 11 -4 11 -10z m315 -80 c3 -5 -1 -10 -9 -10
-9 0 -16 5 -16 10 0 6 4 10 9 10 6 0 13 -4 16 -10z m-4455 -560 c0 -11 -4 -20
-10 -20 -5 0 -10 9 -10 20 0 11 5 20 10 20 6 0 10 -9 10 -20z"/>
<path d="M3380 6560 c5 -10 15 -22 21 -25 5 -4 15 -19 21 -33 l10 -27 9 23 c5
13 7 28 4 33 -4 5 1 6 9 3 16 -6 22 -24 8 -24 -4 0 -9 -14 -10 -31 -3 -34 21
-69 47 -70 13 0 13 -1 -1 -7 -16 -7 -16 -11 7 -56 33 -66 85 -201 85 -223 0
-10 7 -31 16 -48 83 -158 85 -164 105 -287 11 -68 24 -127 30 -133 7 -7 32 13
77 60 79 82 307 327 377 405 28 30 82 88 121 130 39 41 99 107 134 145 35 39
88 95 117 125 l54 55 -483 3 c-266 1 -493 0 -505 -3 -13 -3 -23 -13 -24 -23 0
-13 -3 -11 -9 6 -10 24 -39 29 -58 10 -8 -8 -15 -8 -24 -1 -18 15 -78 14 -78
0 0 -8 -3 -8 -8 -2 -4 6 -20 12 -35 13 -24 2 -26 0 -17 -18z m90 0 c0 -5 -4
-10 -10 -10 -5 0 -10 5 -10 10 0 6 5 10 10 10 6 0 10 -4 10 -10z m44 -34 c-3
-9 -10 -16 -15 -16 -4 0 -6 -7 -3 -15 4 -8 1 -15 -4 -15 -6 0 -13 -10 -15 -22
-2 -13 -4 -6 -3 14 0 21 5 38 10 38 4 0 5 7 2 16 -4 9 -1 23 6 31 10 12 13 12
20 -1 4 -8 5 -21 2 -30z m66 37 c-1 -14 -27 -43 -39 -43 -6 0 -10 -3 -10 -7 4
-27 -3 -63 -11 -58 -5 3 -10 1 -10 -6 0 -10 -2 -10 -12 0 -11 10 -10 15 5 25
9 7 17 20 17 28 0 18 37 68 51 68 5 0 9 -3 9 -7z m83 -34 c-12 -4 -24 -12 -28
-18 -3 -6 -14 -11 -23 -11 -13 1 -11 6 11 25 17 15 34 22 44 18 14 -6 13 -7
-4 -14z m-59 -49 c11 -11 0 -40 -15 -40 -8 0 -8 4 1 15 11 13 8 15 -14 15 -17
0 -26 5 -26 16 0 11 6 14 23 9 12 -4 26 -11 31 -15z m-54 -57 c0 -9 -40 -71
-40 -62 0 17 23 69 31 69 5 0 9 -3 9 -7z"/>
<path d="M2241 6474 c0 -11 3 -14 6 -6 3 7 2 16 -1 19 -3 4 -6 -2 -5 -13z"/>
<path d="M3315 5630 c-3 -5 1 -10 10 -10 9 0 13 5 10 10 -3 6 -8 10 -10 10 -2
0 -7 -4 -10 -10z"/>
<path d="M3608 5595 c-45 -31 -55 -31 -61 -2 -2 12 -5 1 -6 -24 -1 -56 36
-118 110 -180 36 -30 58 -60 79 -106 18 -39 35 -63 42 -61 16 6 52 142 38 146
-5 2 -10 13 -10 25 0 14 -10 26 -25 34 -24 11 -36 1 -15 -12 6 -3 10 -11 10
-18 0 -6 -8 -4 -17 6 -14 14 -15 21 -6 36 10 15 8 26 -7 57 -11 21 -24 42 -30
48 -5 5 -10 20 -10 33 0 20 -25 43 -47 43 -5 0 -25 -11 -45 -25z"/>
<path d="M3780 5451 c0 -6 5 -13 10 -16 6 -3 10 1 10 9 0 9 -4 16 -10 16 -5 0
-10 -4 -10 -9z"/>
<path d="M3058 5415 c-3 -14 -2 -28 3 -30 12 -8 22 36 11 47 -6 6 -11 0 -14
-17z"/>
<path d="M2040 5270 c0 -5 5 -10 11 -10 5 0 7 5 4 10 -3 6 -8 10 -11 10 -2 0
-4 -4 -4 -10z"/>
<path d="M2077 5216 c-4 -10 -7 -25 -6 -34 0 -11 4 -9 10 7 5 13 8 29 6 35 -2
5 -6 2 -10 -8z"/>
<path d="M2095 5110 c3 -5 8 -10 11 -10 2 0 4 5 4 10 0 6 -5 10 -11 10 -5 0
-7 -4 -4 -10z"/>
<path d="M2095 4930 c3 -5 11 -10 16 -10 6 0 7 5 4 10 -3 6 -11 10 -16 10 -6
0 -7 -4 -4 -10z"/>
<path d="M2185 4870 c-3 -5 -1 -10 4 -10 6 0 11 5 11 10 0 6 -2 10 -4 10 -3 0
-8 -4 -11 -10z"/>
<path d="M2155 4800 c-3 -5 -1 -10 4 -10 6 0 11 5 11 10 0 6 -2 10 -4 10 -3 0
-8 -4 -11 -10z"/>
<path d="M2180 4786 c0 -8 -6 -17 -12 -19 -10 -4 -9 -8 2 -16 16 -12 37 -15
27 -4 -4 3 -2 12 4 19 11 14 4 34 -12 34 -5 0 -9 -6 -9 -14z"/>
<path d="M3060 4560 c0 -13 11 -13 30 0 12 8 11 10 -7 10 -13 0 -23 -4 -23
-10z"/>
<path d="M2225 4550 c-11 -18 5 -31 26 -20 11 6 17 15 14 21 -8 12 -32 12 -40
-1z"/>
<path d="M2422 4548 c2 -6 10 -14 16 -16 7 -2 10 2 6 12 -7 18 -28 22 -22 4z"/>
<path d="M2350 4430 c0 -11 -4 -20 -10 -20 -5 0 -10 7 -10 15 0 21 -17 19 -23
-4 -4 -15 2 -20 27 -25 24 -5 35 -2 49 15 23 29 21 39 -8 39 -18 0 -25 -5 -25
-20z"/>
<path d="M2436 4405 c-3 -9 0 -15 9 -15 8 0 15 7 15 15 0 8 -4 15 -9 15 -5 0
-11 -7 -15 -15z"/>
<path d="M2380 4366 c6 -8 18 -12 26 -9 23 9 16 23 -12 23 -22 0 -24 -2 -14
-14z"/>
<path d="M3830 4110 c0 -5 5 -10 10 -10 6 0 10 5 10 10 0 6 -4 10 -10 10 -5 0
-10 -4 -10 -10z"/>
<path d="M2618 4103 c7 -3 16 -2 19 1 4 3 -2 6 -13 5 -11 0 -14 -3 -6 -6z"/>
<path d="M3776 4030 c-6 -16 -17 -121 -16 -157 0 -13 -4 -23 -9 -23 -16 0 -21
-61 -7 -93 11 -24 15 -27 15 -12 2 41 23 96 44 116 18 16 22 31 22 82 0 34 -3
62 -7 62 -4 0 -14 9 -22 20 -12 17 -16 17 -20 5z"/>
<path d="M3335 3940 c3 -5 11 -10 16 -10 6 0 7 5 4 10 -3 6 -11 10 -16 10 -6
0 -7 -4 -4 -10z"/>
<path d="M2880 3830 c0 -5 7 -10 15 -10 8 0 15 5 15 10 0 6 -7 10 -15 10 -8 0
-15 -4 -15 -10z"/>
<path d="M2897 3793 c7 -3 9 -13 3 -32 -12 -41 8 -62 53 -54 21 3 37 7 37 8 0
11 -32 75 -38 76 -4 0 -20 2 -37 4 -16 1 -25 1 -18 -2z"/>
<path d="M3717 3713 c-14 -13 -7 -63 8 -63 8 0 15 9 15 19 0 11 6 22 13 24 9
4 8 8 -3 16 -18 13 -24 13 -33 4z"/>
<path d="M3025 3700 c3 -5 14 -10 23 -10 15 0 15 2 2 10 -20 13 -33 13 -25 0z"/>
<path d="M3178 3643 c7 -3 16 -2 19 1 4 3 -2 6 -13 5 -11 0 -14 -3 -6 -6z"/>
</g>
</svg>
